<svg version="1.1" id="Logo_00000152252418857761589150000000798012301435666049_" xmlns="http://www.w3.org/2000/svg" x="0" y="0" viewBox="0 0 500 500" style="enable-background:new 0 0 500 500" xml:space="preserve"><style>.st1{fill:#fff}</style><switch><g><path d="m413.8 128.5-108.4 9.7c-18.7-10.9-37.3-15.2-57-15.2-5.2 0-10.5.5-15.8 1.4l-113-42.1c-4.5-1.7-7.8 4.3-4 7.2l69.6 53.8c-14.7 9.2-28.5 21-40.5 34.7-20.9 23.8-46.9 89.3-59.6 123.5-5.4 14.6-2.7 30.9 7.1 42.9 23 28 70.9 73.5 162.9 73.5 84.4 0 127-37.8 147-65.6 11.1-15.4 14.3-35 8.9-53.2-9.2-30.7-28.3-83.9-59.4-120.4-1.1-1.3-2.2-2.6-3.3-3.8l67.5-40c3.3-1.8 1.8-6.7-2-6.4z" style="fill:#ff4c46"/><path class="st1" d="M300.9 326.1c-8.1 2.9-26.3 7.2-46.4-3.2-1-.5-2 .8-1.2 1.6 6.4 6.9 17.8 18.9 24.7 24.8 1.4 1.2 3.6 1.1 4.9-.3l19.2-21.2c.7-.8-.2-2.1-1.2-1.7z"/><path class="st1" d="M375.7 237.9c-10.3-22.2-25.6-43-48.8-45.7-4.2-.5-8.4.5-12.1 2.6l-25.3 15c-6.3 3.7-14.3 3.2-20-1.3l-22-17c-7.4-5.7-15.8-9.9-24.9-12-37.8-8.9-63.4 10.9-82.7 48.1-18.5 35.5-8.2 86.5 37.4 98.7 48.1 12.8 79.9-40.6 92.6-58.4 2.4-3.4 7.5-3.4 10 0 19.7 26.8 46.3 55.5 74.7 49.8 37.1-7.6 32.7-54.7 21.1-79.8zm-139.2 28.3c-9.2 6.2-21.1 4.8-28.1-5.7-7.1-10.5-3.9-22 5.3-28.2 9.2-6.2 21.1-4.8 28.1 5.7 7.1 10.5 4 22-5.3 28.2zm98.4 1.8c-9.2 6.2-21.1 4.8-28.1-5.7-7.1-10.5-3.9-22 5.3-28.2 9.2-6.2 21.1-4.8 28.1 5.7 7.1 10.5 3.9 22-5.3 28.2z"/><path class="st1" d="M279.1 281.7c-1.9-2.2-5.3-2.1-7.2.1l-20.2 24c-.9 1.1-.7 2.8.4 3.7 4.6 3.3 16.1 10.6 27.2 10.6 10.3 0 19.6-4 24.1-6.3 1.5-.7 1.8-2.7.7-3.9l-25-28.2z"/><g><path style="fill:none" d="M0 0h500v500H0z"/></g></g></switch></svg>