<?xml version="1.0" encoding="UTF-8"?>
<svg version="1.1" xmlns="http://www.w3.org/2000/svg" width="72" height="73">
<path d="M0 0 C21.78 0 43.56 0 66 0 C66 21.78 66 43.56 66 66 C61.71 66 57.42 66 53 66 C52.505 45.21 52.505 45.21 52 24 C36.16 39.84 20.32 55.68 4 72 C-0.44995051 69.77502475 -2.60084691 67.55366005 -6 64 C-4.47102424 60.38307227 -2.32184367 58.0796478 0.44970703 55.32324219 C1.83091232 53.94226349 1.83091232 53.94226349 3.24002075 52.53338623 C4.24584465 51.5377747 5.2517778 50.54227352 6.2578125 49.546875 C7.28672149 48.52169807 8.31518837 47.49607725 9.3432312 46.47003174 C12.04481581 43.77606836 14.75235341 41.08816632 17.46118164 38.40148926 C20.71298227 35.17378488 23.95732811 31.93858939 27.20292664 28.70465088 C32.12960203 23.79734292 37.06564152 18.89963665 42 14 C28.14 13.67 14.28 13.34 0 13 C0 8.71 0 4.42 0 0 Z " fill="#F6BE00" transform="translate(6,0)"/>
</svg>
