<?xml version="1.0" encoding="UTF-8"?>
<svg version="1.1" xmlns="http://www.w3.org/2000/svg" width="83" height="83">
<path d="M0 0 C9.00374635 6.60770806 16.1583144 15.2707647 18.55078125 26.421875 C19.67244157 39.24593352 19.05569382 50.58227004 11.23828125 61.234375 C4.43748715 69.31752222 -4.52967336 76.64172415 -15.47290039 77.59887695 C-30.26959308 78.02328215 -41.13645387 76.87123904 -52.44921875 66.421875 C-60.25184173 58.88585645 -64.49638569 49.648466 -64.74194336 38.87255859 C-64.85446908 24.57206805 -61.89252667 15.16388485 -51.79296875 4.70703125 C-38.16797908 -7.92179172 -15.64971916 -10.08371059 0 0 Z M-53.078125 14.24609375 C-59.83877279 22.90375913 -60.41395158 32.75372479 -59.44921875 43.421875 C-57.4851756 53.67418024 -51.03152344 61.04801819 -42.94921875 67.359375 C-33.68602514 73.29624 -23.07123604 73.88203157 -12.390625 71.8359375 C-2.75722783 68.85709979 5.76143809 61.29968183 10.55078125 52.421875 C15.09153067 43.41420948 15.05503563 32.12284674 12.11328125 22.609375 C8.26105572 13.4432639 0.45873912 5.90416524 -8.35546875 1.4609375 C-25.71647142 -5.60006732 -41.39730911 1.16470041 -53.078125 14.24609375 Z " fill="#F6BE00" transform="translate(64.44921875,5.578125)"/>
<path d="M0 0 C3.17852316 1.64448689 5.37801764 3.75603527 7 7 C8.03037808 16.00844834 8.03037808 16.00844834 5.953125 20.0234375 C3.47535361 23.0113383 1.48573267 24.83006326 -2.390625 25.2734375 C-11.05997149 25.58136511 -11.05997149 25.58136511 -14.625 22.625 C-18.45795689 18.38857397 -18.38863816 15.34807028 -18.359375 9.7734375 C-17.80289254 5.47884463 -16.16828113 3.86654007 -13 1 C-9.03716439 -0.98141781 -4.30789762 -0.55820645 0 0 Z " fill="#F6BE00" transform="translate(47,29)"/>
</svg>
