<?xml version="1.0" encoding="UTF-8"?>
<svg id="Layer_1" xmlns="http://www.w3.org/2000/svg" version="1.1" viewBox="0 0 41 41">
  <!-- Generator: Adobe Illustrator 29.1.0, SVG Export Plug-In . SVG Version: 2.1.0 Build 142)  -->
  <defs>
    <style>
      .st0 {
        fill: none;
        stroke: red;
        stroke-linecap: round;
        stroke-linejoin: round;
        stroke-width: 1.5px;
      }
    </style>
  </defs>
  <path class="st0" d="M35.9,1.9H4.5c-1.6,0-2.9,1.3-2.9,2.9v31.4c0,1.6,1.3,2.9,2.9,2.9h31.4c1.6,0,2.9-1.3,2.9-2.9V4.8c0-1.6-1.3-2.9-2.9-2.9Z"/>
  <path class="st0" d="M20.2,33.3c5.5,0,10-4.5,10-10s-4.5-10-10-10-10,4.5-10,10,4.5,10,10,10Z"/>
  <path class="st0" d="M1.6,10.5h8.6"/>
  <path class="st0" d="M30.2,10.5h8.6"/>
  <path class="st0" d="M20.2,23.2v10"/>
  <path class="st0" d="M11.6,18.2l8.6,5.1"/>
  <path class="st0" d="M28.7,18.2l-8.6,5.1"/>
</svg>