<?xml version="1.0" encoding="UTF-8"?>
<svg id="Layer_1" xmlns="http://www.w3.org/2000/svg" version="1.1" viewBox="0 0 60 61">
  <!-- Generator: Adobe Illustrator 29.1.0, SVG Export Plug-In . SVG Version: 2.1.0 Build 142)  -->
  <defs>
    <style>
      .st0 {
        fill: none;
        stroke: red;
        stroke-linecap: round;
        stroke-linejoin: round;
        stroke-width: 2px;
      }
    </style>
  </defs>
  <path class="st0" d="M22.4,10.3l1.8-4.8c.3-.8.9-1.5,1.6-2,.7-.5,1.6-.8,2.4-.8h3.5c.9,0,1.7.3,2.4.8.7.5,1.3,1.2,1.6,2l1.8,4.8,6.3,3.6,5.1-.8c.8-.1,1.7,0,2.5.4.8.4,1.4,1,1.8,1.7l1.7,3c.4.7.6,1.6.6,2.5,0,.9-.4,1.7-.9,2.4l-3.1,4v7.2l3.2,4c.5.7.9,1.5.9,2.4,0,.9-.1,1.7-.6,2.5l-1.7,3c-.4.7-1.1,1.3-1.8,1.7-.8.4-1.6.5-2.5.4l-5.1-.8-6.3,3.6-1.8,4.8c-.3.8-.9,1.5-1.6,2-.7.5-1.6.8-2.4.8h-3.6c-.9,0-1.7-.3-2.4-.8-.7-.5-1.3-1.2-1.6-2l-1.8-4.8-6.3-3.6-5.1.8c-.8.1-1.7,0-2.5-.4-.8-.4-1.4-1-1.8-1.7l-1.7-3c-.4-.7-.6-1.6-.6-2.5,0-.9.4-1.7.9-2.4l3.1-4v-7.2l-3.2-4c-.5-.7-.9-1.5-.9-2.4,0-.9.1-1.7.6-2.5l1.7-3c.4-.7,1.1-1.3,1.8-1.7.8-.4,1.6-.5,2.5-.4l5.1.8,6.3-3.6Z"/>
  <path class="st0" d="M30,43.5c7.1,0,12.9-5.8,12.9-12.9s-5.8-12.9-12.9-12.9-12.9,5.8-12.9,12.9,5.8,12.9,12.9,12.9Z"/>
  <path class="st0" d="M30,17.8v12.9h12.9"/>
  <path class="st0" d="M30,30.6l-9.1,9.1"/>
</svg>