<?xml version="1.0" encoding="UTF-8"?>
<svg id="Layer_1" xmlns="http://www.w3.org/2000/svg" version="1.1" viewBox="0 0 41 41">
  <!-- Generator: Adobe Illustrator 29.1.0, SVG Export Plug-In . SVG Version: 2.1.0 Build 142)  -->
  <defs>
    <style>
      .st0 {
        stroke: #000;
      }

      .st0, .st1 {
        fill: none;
        stroke-linecap: round;
        stroke-linejoin: round;
      }

      .st1 {
        stroke: red;
        stroke-width: 1.5px;
      }
    </style>
  </defs>
  <path class="st0" d="M20.5,29.5v2.9"/>
  <path class="st0" d="M20.5,15.2v2.7"/>
  <path class="st1" d="M20.5,39.4c10,0,17.1-3.5,17.1-11.4s-4.3-14.3-12.9-18.6l3.4-4.3c.2-.3.3-.6.3-.9,0-.3,0-.7-.2-1-.2-.3-.4-.5-.7-.7-.3-.2-.6-.3-.9-.3h-12.1c-.3,0-.7,0-.9.3-.3.2-.5.4-.7.7s-.2.6-.2,1c0,.3,0,.7.3.9l3.4,4.4C7.6,13.8,3.4,19.5,3.4,28.1s7.1,11.4,17.1,11.4Z"/>
  <path class="st1" d="M17.6,28.2c.3.4.8.7,1.3,1,.5.2,1,.3,1.6.3.8,0,1.6-.2,2.3-.7.6-.5,1-1.3,1.1-2.1,0-.8-.5-1.6-1.1-2.1-.6-.5-1.4-.8-2.3-.7-.8,0-1.6-.2-2.3-.7-.6-.5-1-1.3-1.1-2.1,0-.8.5-1.6,1.1-2.1.6-.5,1.5-.8,2.3-.7.5,0,1.1,0,1.6.3.5.2.9.5,1.3.9"/>
</svg>