<?xml version="1.0" encoding="UTF-8"?>
<svg id="Layer_1" xmlns="http://www.w3.org/2000/svg" version="1.1" viewBox="0 0 41 41">
  <!-- Generator: Adobe Illustrator 29.1.0, SVG Export Plug-In . SVG Version: 2.1.0 Build 142)  -->
  <defs>
    <style>
      .st0 {
        fill: none;
        stroke: red;
        stroke-linecap: round;
        stroke-linejoin: round;
        stroke-width: 1.5px;
      }
    </style>
  </defs>
  <path class="st0" d="M21.5,20.2c-.4.2-.9.3-1.3.3s-.9,0-1.3-.3L2.5,12.6c-.3-.1-.5-.3-.6-.6-.2-.3-.2-.5-.2-.8s0-.6.2-.8c.2-.3.4-.5.6-.6L18.8,2.2c.4-.2.9-.3,1.3-.3s.9,0,1.3.3l16.3,7.5c.3.1.5.3.6.6.2.3.2.5.2.8s0,.6-.2.8c-.2.3-.4.5-.6.6l-16.3,7.6Z"/>
  <path class="st0" d="M38.7,21.5l-17.4,8c-.4.2-.8.3-1.2.3s-.8,0-1.2-.3L1.6,21.5"/>
  <path class="st0" d="M38.7,30.8l-17.4,8c-.4.2-.8.3-1.2.3s-.8,0-1.2-.3L1.6,30.8"/>
</svg>