<?xml version="1.0" encoding="UTF-8"?>
<svg id="Layer_1" xmlns="http://www.w3.org/2000/svg" version="1.1" viewBox="0 0 60 61">
  <!-- Generator: Adobe Illustrator 29.1.0, SVG Export Plug-In . SVG Version: 2.1.0 Build 142)  -->
  <defs>
    <style>
      .st0 {
        fill: none;
        stroke: red;
        stroke-linecap: round;
        stroke-linejoin: round;
        stroke-width: 2px;
      }
    </style>
  </defs>
  <path class="st0" d="M6.4,26.3h4.3c.6,0,1.1.2,1.5.6.4.4.6.9.6,1.5v10.7c0,.6-.2,1.1-.6,1.5-.4.4-.9.6-1.5.6h-4.3c-1.1,0-2.2-.5-3-1.3-.8-.8-1.3-1.9-1.3-3v-6.4c0-1.1.5-2.2,1.3-3,.8-.8,1.9-1.3,3-1.3h0Z"/>
  <path class="st0" d="M53.6,41.3h-4.3c-.6,0-1.1-.2-1.5-.6s-.6-.9-.6-1.5v-10.7c0-.6.2-1.1.6-1.5.4-.4.9-.6,1.5-.6h4.3c1.1,0,2.2.5,3,1.3.8.8,1.3,1.9,1.3,3v6.4c0,1.1-.5,2.2-1.3,3-.8.8-1.9,1.3-3,1.3h0Z"/>
  <path class="st0" d="M40.7,53.1c2.3,0,4.5-.9,6.1-2.5,1.6-1.6,2.5-3.8,2.5-6.1v-3.2"/>
  <path class="st0" d="M35.4,47.8c1.4,0,2.8.6,3.8,1.6,1,1,1.6,2.4,1.6,3.8s-.6,2.8-1.6,3.8c-1,1-2.4,1.6-3.8,1.6h-6.4c-1.4,0-2.8-.6-3.8-1.6-1-1-1.6-2.4-1.6-3.8s.6-2.8,1.6-3.8c1-1,2.4-1.6,3.8-1.6h6.4Z"/>
  <path class="st0" d="M10.7,26.3v-4.3c0-5.1,2-10,5.6-13.6,3.6-3.6,8.5-5.6,13.6-5.6s10,2,13.6,5.6c3.6,3.6,5.6,8.5,5.6,13.6v4.3"/>
  <path class="st0" d="M23.6,17.8v6.4"/>
  <path class="st0" d="M36.4,17.8v6.4"/>
  <path class="st0" d="M23.6,32.8c0,5.7,12.9,5.7,12.9,0"/>
</svg>