<?xml version="1.0" encoding="UTF-8"?>
<svg id="Layer_1" xmlns="http://www.w3.org/2000/svg" version="1.1" viewBox="0 0 40 41">
  <!-- Generator: Adobe Illustrator 29.1.0, SVG Export Plug-In . SVG Version: 2.1.0 Build 142)  -->
  <defs>
    <style>
      .st0 {
        fill: none;
        stroke: red;
        stroke-linecap: round;
        stroke-linejoin: round;
        stroke-width: 1.5px;
      }
    </style>
  </defs>
  <path class="st0" d="M12.9,22.3h-2.9c-1.6,0-2.9,1.3-2.9,2.9v11.4c0,1.6,1.3,2.9,2.9,2.9h2.9c1.6,0,2.9-1.3,2.9-2.9v-11.4c0-1.6-1.3-2.9-2.9-2.9Z"/>
  <path class="st0" d="M30,22.3h-2.9c-1.6,0-2.9,1.3-2.9,2.9v11.4c0,1.6,1.3,2.9,2.9,2.9h2.9c1.6,0,2.9-1.3,2.9-2.9v-11.4c0-1.6-1.3-2.9-2.9-2.9Z"/>
  <path class="st0" d="M1.4,28v-7.1c0-4.9,2-9.6,5.4-13.1,3.5-3.5,8.2-5.4,13.1-5.4,4.9,0,9.6,2,13.1,5.4,3.5,3.5,5.4,8.2,5.4,13.1v7.1"/>
</svg>