<?xml version="1.0" encoding="UTF-8"?>
<svg id="Layer_1" xmlns="http://www.w3.org/2000/svg" version="1.1" viewBox="0 0 60 61">
  <!-- Generator: Adobe Illustrator 29.1.0, SVG Export Plug-In . SVG Version: 2.1.0 Build 142)  -->
  <defs>
    <style>
      .st0 {
        fill: none;
        stroke: red;
        stroke-linecap: round;
        stroke-linejoin: round;
        stroke-width: 2px;
      }
    </style>
  </defs>
  <path class="st0" d="M40.7,7.1h6.4c1.1,0,2.2.5,3,1.3s1.3,1.9,1.3,3v42.9c0,1.1-.5,2.2-1.3,3-.8.8-1.9,1.3-3,1.3H12.9c-1.1,0-2.2-.5-3-1.3-.8-.8-1.3-1.9-1.3-3V11.3c0-1.1.5-2.2,1.3-3,.8-.8,1.9-1.3,3-1.3h6.4"/>
  <path class="st0" d="M36.4,2.8h-12.9c-2.4,0-4.3,1.9-4.3,4.3v2.1c0,2.4,1.9,4.3,4.3,4.3h12.9c2.4,0,4.3-1.9,4.3-4.3v-2.1c0-2.4-1.9-4.3-4.3-4.3Z"/>
  <path class="st0" d="M19.3,24.2h21.4"/>
  <path class="st0" d="M19.3,34.9h21.4"/>
  <path class="st0" d="M19.3,45.6h21.4"/>
</svg>