<?xml version="1.0" encoding="UTF-8"?>
<svg id="Layer_1" xmlns="http://www.w3.org/2000/svg" version="1.1" viewBox="0 0 50 51">
  <!-- Generator: Adobe Illustrator 29.1.0, SVG Export Plug-In . SVG Version: 2.1.0 Build 142)  -->
  <defs>
    <style>
      .st0 {
        fill: red;
      }
    </style>
  </defs>
  <path class="st0" d="M45.6,7.6H4.4c-2.4,0-4.4,2-4.4,4.4v26.4c0,2.4,2,4.4,4.4,4.4h41.2c2.4,0,4.4-2,4.4-4.4V12c0-2.4-2-4.4-4.4-4.4ZM45,10.5c-.9.9-16.3,16.3-16.9,16.8-.8.8-1.9,1.3-3.1,1.3s-2.3-.5-3.1-1.3c-.4-.4-15.6-15.6-16.9-16.8h40ZM2.9,37.7V12.6l12.7,12.6-12.7,12.6ZM5,39.8l12.7-12.6,2.2,2.1c1.4,1.4,3.2,2.1,5.2,2.1s3.8-.8,5.2-2.1l2.2-2.1,12.7,12.6H5ZM47.1,37.7l-12.7-12.6,12.7-12.6v25.2Z"/>
</svg>