<?xml version="1.0" encoding="UTF-8"?>
<svg id="Layer_1" xmlns="http://www.w3.org/2000/svg" version="1.1" viewBox="0 0 50 51">
  <!-- Generator: Adobe Illustrator 29.1.0, SVG Export Plug-In . SVG Version: 2.1.0 Build 142)  -->
  <defs>
    <style>
      .st0 {
        fill: red;
      }
    </style>
  </defs>
  <path class="st0" d="M39.5,31.1c-1-1.1-2.3-1.6-3.6-1.6s-2.5.6-3.6,1.6l-3.3,3.3c-.3-.1-.5-.3-.8-.4-.4-.2-.7-.4-1-.6-3.1-2-6-4.6-8.7-7.9-1.3-1.7-2.2-3.1-2.8-4.5.9-.8,1.7-1.6,2.4-2.4.3-.3.6-.6.9-.9,2.2-2.2,2.2-5.1,0-7.3l-2.9-2.9c-.3-.3-.7-.7-1-1-.6-.7-1.3-1.3-2-2-1-1-2.2-1.6-3.5-1.6s-2.5.5-3.6,1.6t0,0l-3.6,3.6C1,9.6.3,11.2,0,13.1c-.3,3.1.7,6,1.4,7.8,1.7,4.6,4.3,8.9,8.1,13.5,4.6,5.5,10.2,9.9,16.5,12.9,2.4,1.2,5.7,2.5,9.3,2.7.2,0,.5,0,.7,0,2.4,0,4.5-.9,6.1-2.6,0,0,0,0,0,0,.5-.7,1.2-1.3,1.8-1.9.5-.4.9-.9,1.4-1.4,1-1.1,1.6-2.4,1.6-3.7s-.6-2.6-1.6-3.6l-5.8-5.8ZM43.3,42.2s0,0,0,0c-.4.4-.8.8-1.3,1.3-.7.7-1.4,1.3-2,2.1-1.1,1.1-2.3,1.7-4,1.7s-.3,0-.5,0c-3.1-.2-6-1.4-8.2-2.5-6-2.9-11.2-7-15.6-12.2-3.6-4.3-6-8.3-7.6-12.7-1-2.6-1.3-4.7-1.2-6.6.1-1.2.6-2.3,1.5-3.1l3.6-3.6c.5-.5,1.1-.7,1.6-.7s1.2.4,1.5.7c0,0,0,0,0,0,.6.6,1.3,1.2,1.9,1.9.3.3.7.7,1,1l2.9,2.9c1.1,1.1,1.1,2.2,0,3.3s-.6.6-.9.9c-.9.9-1.7,1.8-2.6,2.6,0,0,0,0,0,0-.9.9-.7,1.8-.5,2.4,0,0,0,0,0,0,.7,1.8,1.8,3.5,3.4,5.6h0c2.9,3.6,6,6.4,9.4,8.5.4.3.9.5,1.3.7.4.2.7.4,1,.6,0,0,0,0,.1,0,.4.2.7.3,1,.3.9,0,1.4-.5,1.6-.7l3.6-3.6c.4-.4.9-.8,1.6-.8s1.2.4,1.5.8c0,0,0,0,0,0l5.8,5.8c1.1,1.1,1.1,2.2,0,3.3Z"/>
  <path class="st0" d="M27,12c2.8.5,5.3,1.8,7.3,3.8,2,2,3.3,4.5,3.8,7.3.1.7.7,1.2,1.4,1.2s.2,0,.2,0c.8-.1,1.3-.9,1.2-1.6-.6-3.3-2.2-6.4-4.6-8.8-2.4-2.4-5.5-4-8.8-4.6-.8-.1-1.5.4-1.6,1.2-.1.8.4,1.5,1.2,1.6Z"/>
  <path class="st0" d="M49.9,22.2c-.9-5.5-3.5-10.5-7.5-14.5-4-4-9-6.6-14.5-7.5-.8-.1-1.5.4-1.6,1.2-.1.8.4,1.5,1.2,1.6,4.9.8,9.4,3.2,13,6.7,3.6,3.6,5.9,8.1,6.7,13,.1.7.7,1.2,1.4,1.2s.2,0,.2,0c.8-.1,1.3-.9,1.2-1.6Z"/>
</svg>