<?xml version="1.0" encoding="UTF-8"?>
<svg id="Layer_1" xmlns="http://www.w3.org/2000/svg" version="1.1" viewBox="0 0 41 41">
  <!-- Generator: Adobe Illustrator 29.1.0, SVG Export Plug-In . SVG Version: 2.1.0 Build 142)  -->
  <defs>
    <style>
      .st0 {
        fill: none;
        stroke: red;
        stroke-linecap: round;
        stroke-linejoin: round;
        stroke-width: 1.5px;
      }
    </style>
  </defs>
  <path class="st0" d="M37.4,16.6H3.6c-1.6,0-2.3-1.7-1-2.6L19.5,3c.3-.2.7-.3,1-.3s.7,0,1,.3l16.9,11.1c1.3.8.6,2.6-1,2.6Z"/>
  <path class="st0" d="M37.6,32.3H3.4c-.8,0-1.4.6-1.4,1.4v4.3c0,.8.6,1.4,1.4,1.4h34.3c.8,0,1.4-.6,1.4-1.4v-4.3c0-.8-.6-1.4-1.4-1.4Z"/>
  <path class="st0" d="M6.2,16.6v15.7"/>
  <path class="st0" d="M13.4,16.6v15.7"/>
  <path class="st0" d="M20.5,16.6v15.7"/>
  <path class="st0" d="M27.6,16.6v15.7"/>
  <path class="st0" d="M34.8,16.6v15.7"/>
</svg>