<?xml version="1.0" encoding="UTF-8"?>
<svg version="1.1" xmlns="http://www.w3.org/2000/svg" width="67" height="71">
<path d="M0 0 C1.90072266 0.02126953 1.90072266 0.02126953 3.83984375 0.04296875 C5.74443359 0.05263672 5.74443359 0.05263672 7.6875 0.0625 C10.77734375 0.23046875 10.77734375 0.23046875 11.77734375 1.23046875 C11.99447598 7.96156797 11.47781078 14.53850692 10.77734375 21.23046875 C11.669375 20.52019531 12.56140625 19.80992188 13.48046875 19.078125 C14.66248937 18.14939451 15.84479611 17.22102809 17.02734375 16.29296875 C17.61386719 15.82439453 18.20039062 15.35582031 18.8046875 14.87304688 C21.77063014 12.5569456 24.0901721 10.9629962 27.77734375 10.23046875 C28.75903851 11.35326337 29.73761673 12.47878348 30.71484375 13.60546875 C31.26011719 14.23195313 31.80539063 14.8584375 32.3671875 15.50390625 C35.56364336 19.41757243 34.77734375 20.19129887 34.77734375 26.23046875 C25.86734375 29.69546875 25.86734375 29.69546875 16.77734375 33.23046875 C23.46373571 36.58496642 23.46373571 36.58496642 30.27734375 39.48046875 C31.13328125 39.815625 31.98921875 40.15078125 32.87109375 40.49609375 C33.50015625 40.7384375 34.12921875 40.98078125 34.77734375 41.23046875 C34.26214382 47.67046783 32.34065184 51.66716066 27.77734375 56.23046875 C22.36340152 56.11412329 19.27315516 53.64214146 15.40234375 50.16796875 C14.85707031 49.69552734 14.31179687 49.22308594 13.75 48.73632812 C12.41651072 47.57829796 11.09560156 46.40580864 9.77734375 45.23046875 C9.92194056 46.87641118 10.06810311 48.52221606 10.21484375 50.16796875 C10.30378906 51.16570313 10.39273438 52.1634375 10.484375 53.19140625 C10.74547317 55.89986462 11.06379603 58.59338045 11.40234375 61.29296875 C11.77734375 65.23046875 11.77734375 65.23046875 10.77734375 67.23046875 C8.29810574 67.2573197 5.81915535 67.27723422 3.33984375 67.29296875 C2.63279297 67.30134766 1.92574219 67.30972656 1.19726562 67.31835938 C-0.60959184 67.32700463 -2.41653228 67.28266886 -4.22265625 67.23046875 C-5.22265625 66.23046875 -5.22265625 66.23046875 -5.41015625 62.41796875 C-5.36312251 56.58578457 -4.30586123 50.94630934 -3.22265625 45.23046875 C-5.36916441 46.87542841 -7.51488914 48.52139201 -9.66015625 50.16796875 C-10.57764648 50.87083008 -10.57764648 50.87083008 -11.51367188 51.58789062 C-14.4723451 53.78718699 -14.4723451 53.78718699 -17.22265625 56.23046875 C-19.53515625 56.60546875 -19.53515625 56.60546875 -22.22265625 56.23046875 C-25.62676115 52.63184358 -28.17720505 49.57127919 -28.34765625 44.54296875 C-28.30640625 43.44984375 -28.26515625 42.35671875 -28.22265625 41.23046875 C-27.00707031 40.73675781 -25.79148437 40.24304687 -24.5390625 39.734375 C-22.95437315 39.08737166 -21.36974066 38.44022905 -19.78515625 37.79296875 C-18.98271484 37.46748047 -18.18027344 37.14199219 -17.35351562 36.80664062 C-16.20786133 36.33774414 -16.20786133 36.33774414 -15.0390625 35.859375 C-14.33209229 35.5713501 -13.62512207 35.2833252 -12.89672852 34.98657227 C-11.22432858 34.3499303 -11.22432858 34.3499303 -10.22265625 33.23046875 C-11.43824219 32.78316406 -12.65382813 32.33585937 -13.90625 31.875 C-15.49128847 31.26536982 -17.07590242 30.6546351 -18.66015625 30.04296875 C-19.46259766 29.75099609 -20.26503906 29.45902344 -21.09179688 29.15820312 C-26.89863055 26.87957219 -26.89863055 26.87957219 -28.42578125 23.8203125 C-28.17194309 20.58387592 -27.23981789 18.73764545 -25.53515625 15.98046875 C-25.01566406 15.1090625 -24.49617188 14.23765625 -23.9609375 13.33984375 C-22.22265625 11.23046875 -22.22265625 11.23046875 -20.42578125 10.1328125 C-16.74812512 10.29582917 -14.38046492 12.7816548 -11.66015625 15.04296875 C-10.51347983 15.9667159 -9.36635933 16.88991211 -8.21875 17.8125 C-7.23003906 18.61042969 -6.24132812 19.40835937 -5.22265625 20.23046875 C-4.23265625 20.89046875 -3.24265625 21.55046875 -2.22265625 22.23046875 C-2.32400879 21.63508301 -2.42536133 21.03969727 -2.52978516 20.42626953 C-2.9807494 17.73780867 -3.41439378 15.04683649 -3.84765625 12.35546875 C-4.0075 11.41832031 -4.16734375 10.48117187 -4.33203125 9.515625 C-4.47382813 8.61972656 -4.615625 7.72382813 -4.76171875 6.80078125 C-4.96595459 5.55965576 -4.96595459 5.55965576 -5.17431641 4.29345703 C-5.19824463 3.27227783 -5.19824463 3.27227783 -5.22265625 2.23046875 C-3.22265625 0.23046875 -3.22265625 0.23046875 0 0 Z " fill="#F6BE00" transform="translate(30.22265625,1.76953125)"/>
</svg>
