<svg width="185" height="12" viewBox="0 0 185 12" fill="none" xmlns="http://www.w3.org/2000/svg">
<path d="M110.329 6.49793C112.327 6.54421 115.201 6.54421 116.849 6.49793C116.861 6.3623 116.865 6.22612 116.862 6.08999C116.862 4.7599 116 4.01942 113.86 4.01942C111.587 4.01942 110.538 4.70505 110.337 6.49793M110.308 7.72346C110.481 9.52148 111.612 10.2774 113.894 10.2774C116.209 10.2774 116.841 9.39464 116.869 8.47249C117.172 8.50334 118.724 8.50334 118.998 8.47249C119.055 10.4522 118.091 12 113.866 12C110.213 12 108.115 10.4436 108.115 7.13384C108.115 3.82402 110.256 2.35337 113.876 2.35337C117.614 2.35337 118.993 3.82059 118.993 6.26824C118.993 6.87329 118.965 7.3121 118.936 7.73375C117.945 7.72004 116.218 7.72005 114.135 7.72005L110.308 7.72346ZM103.624 11.6983C103.654 10.4882 103.668 8.85645 103.668 6.87673C103.668 5.10784 102.891 4.41194 100.865 4.41194C98.9674 4.41194 97.4579 5.26895 97.4579 7.30009C97.4579 9.88487 97.4726 10.8807 97.4873 11.6983H95.0422C95.0846 10.3837 95.0846 9.21982 95.0846 7.02757C95.0846 4.54906 95.0699 1.93344 95.0422 0H97.5133C97.4856 1.04214 97.4856 1.85801 97.471 2.79559C97.471 3.38522 97.4563 5.4095 97.4416 6.05227L97.5133 6.06771C97.885 4.28682 98.4914 2.40993 101.856 2.40993C104.5 2.40993 106.053 3.57548 106.053 6.20482C106.053 7.36865 106.024 8.00286 106.024 8.78961C106.024 9.81803 106.024 10.7539 106.066 11.6915L103.624 11.6983ZM93.355 0C93.342 0.286245 93.342 0.709601 93.342 1.10212C93.342 1.46549 93.342 1.93344 93.355 2.23512C91.7739 2.20598 90.2221 2.19055 88.9001 2.19055C88.9001 6.42252 88.9147 10.7607 88.9425 11.7137C88.6164 11.6829 88.0508 11.6829 87.6775 11.6829C87.3042 11.6829 86.7728 11.6829 86.4126 11.7137C86.4566 10.7607 86.4713 6.43794 86.4713 2.19055C85.133 2.19055 83.5812 2.20598 82 2.23512C82.0147 1.93344 82.0147 1.46549 82.0147 1.10212C82.0147 0.709601 82.0147 0.301671 82 0H93.355Z" fill="white"/>
<path fill-rule="evenodd" clip-rule="evenodd" d="M157.346 2.44832C153.803 2.44832 153.27 4.35179 153.019 5.74984L152.932 5.71902C152.961 5.08338 152.974 3.26213 152.974 2.61279V2.61197C152.974 1.55531 152.974 0.84444 153.004 0H150.589C150.604 1.37064 150.617 3.49343 150.617 6.1679C150.617 8.49457 150.604 10.1873 150.575 11.6985H152.974V10.1959L152.961 9.41632H153.09C153.242 10.41 154.298 11.8766 157.318 11.8766C160.222 11.8766 161.946 10.2901 161.946 7.11708C161.946 3.94404 160.394 2.44832 157.346 2.44832ZM164.076 11.695C164.118 9.82067 164.118 8.03883 164.118 5.95374C164.118 3.59623 164.118 2.04055 164.076 0.00171498H166.477C166.429 1.63202 166.43 2.95416 166.432 4.78919V4.78963C166.433 5.18183 166.433 5.59747 166.433 6.04455C166.433 6.51136 166.433 6.94709 166.432 7.36181C166.43 8.92587 166.428 10.1912 166.463 11.6985L164.076 11.695ZM169.035 0.791546C169.035 1.25585 169.265 1.6482 170.517 1.6482C171.755 1.6482 171.985 1.25928 171.985 0.791546C171.985 0.323814 171.755 0.00685992 170.517 0.00685992C169.28 0.00685992 169.035 0.327241 169.035 0.791546ZM183.905 8.25129C183.532 8.27395 183.163 8.21079 182.815 8.06624V8.24786C182.757 9.3221 181.924 10.016 179.651 10.016C177.279 10.016 176.087 9.12506 176.087 7.10336C176.087 5.12449 177.279 4.27812 179.608 4.27812C181.995 4.27812 182.727 4.89833 182.801 6.03083V6.21245H184.941V5.98628C184.941 3.32723 183.058 2.35923 179.608 2.35923C175.914 2.35923 173.843 3.96116 173.843 7.13421C173.843 10.3072 175.927 11.9983 179.566 11.9983C183.777 11.9983 185 10.3518 185 8.25129V8.06967C184.778 8.18617 184.427 8.25129 183.905 8.25129ZM171.701 2.63678C171.487 2.78584 171.126 2.88006 170.524 2.88006C169.922 2.88006 169.546 2.78412 169.324 2.63164H169.316V11.6967H171.703L171.701 2.63678ZM147.801 2.62992C147.759 3.85322 147.759 4.97201 147.759 7.02627C147.759 9.00514 147.759 10.4409 147.801 11.695H145.343C145.348 11.4568 145.353 11.0914 145.358 10.6847C145.369 9.88066 145.382 8.91541 145.401 8.45344L145.315 8.43803L145.312 8.45341C144.967 10.045 144.567 11.8921 141.016 11.8921C138.342 11.8921 136.788 10.7133 136.788 8.06795C136.788 7.40527 136.797 6.922 136.805 6.48954V6.48953L136.805 6.48941C136.812 6.13926 136.817 5.82241 136.817 5.47057C136.817 4.45801 136.817 3.55168 136.775 2.62992H139.232C139.19 3.82923 139.175 5.49971 139.175 7.494C139.175 9.26213 139.953 9.98687 141.979 9.98687C143.877 9.98687 145.403 9.11135 145.403 7.10164C145.403 4.48885 145.388 3.44545 145.374 2.62992H147.801ZM134.861 4.12563C134.861 0.997136 133.05 0.00171498 129.944 0.00171498H123C123.057 1.5539 123.057 3.24826 123.057 5.66556V5.66589V5.66622C123.057 8.08355 123.057 10.064 123 11.695H125.644C125.587 10.8778 125.56 9.47971 125.545 8.2804C127.443 8.34036 128.406 8.34036 129.901 8.34036H129.901C133.107 8.34036 134.861 7.0708 134.861 4.12563ZM129.499 2.02539C131.556 2.02539 132.433 2.56852 132.433 4.15504C132.433 5.71243 131.613 6.28638 129.429 6.28638C128.432 6.28638 127.458 6.27503 126.692 6.26611H126.692L126.692 6.2661C126.196 6.26032 125.787 6.25555 125.516 6.25555V2.07165C126.564 2.04081 128.683 2.02539 129.499 2.02539ZM152.934 9.15586C153.796 9.72982 154.96 10.0331 156.37 10.0331C158.598 10.0331 159.647 9.06507 159.647 7.13246C159.647 5.19985 158.555 4.33635 156.457 4.35177C154.53 4.35177 152.934 5.16729 152.934 7.04165V9.15586Z" fill="white"/>
<path fill-rule="evenodd" clip-rule="evenodd" d="M10.7285 9.20044L10.8243 9.42574L10.8244 9.42577L10.8244 9.42581C11.2689 10.4703 11.6274 11.3126 11.7474 11.6933H14.7848C13.465 9.29091 11.1022 4.13952 9.83196 1.36999C9.56853 0.795631 9.35208 0.323713 9.20166 0H5.49853C4.73675 1.75614 1.49264 8.92804 0 11.6933H2.8339C3.00957 11.2383 3.38591 10.4001 3.83515 9.39946L3.9245 9.20044C5.11557 9.18503 6.40748 9.18503 7.28319 9.18503H7.28417H7.28525C8.26173 9.18503 9.4951 9.18503 10.7285 9.20044ZM34.2722 10.177C31.7883 10.177 30.9272 9.80525 30.9272 8.8064L30.9337 8.5751C30.5907 8.61673 30.2452 8.63217 29.9001 8.62135C29.5556 8.62473 29.2111 8.60931 28.8681 8.5751C28.8681 8.65252 28.8642 8.72633 28.8605 8.79814C28.8569 8.86618 28.8534 8.93244 28.8534 8.99829C28.8534 10.948 30.2452 11.9452 34.2071 11.9452C38.0112 11.9452 39.3736 10.948 39.3736 9.07366C39.3736 7.29182 38.4555 6.49 34.6808 6.29468C31.5164 6.1422 31.0997 5.76527 31.0997 5.13134C31.0997 4.44602 31.7459 4.10336 33.9987 4.10336C36.3541 4.10336 37.0719 4.49571 37.0719 5.38834V5.65905C37.156 5.65905 37.279 5.65664 37.4218 5.65383L37.4219 5.65383C37.6192 5.64995 37.8543 5.64533 38.0763 5.64533C38.4588 5.64533 38.8657 5.65905 39.1099 5.67447C39.1126 5.64005 39.1153 5.60696 39.118 5.57476L39.118 5.57463C39.1283 5.4514 39.1376 5.3413 39.1376 5.22044C39.1376 3.0908 37.4724 2.35065 34.0427 2.35065C30.3249 2.35065 28.9755 3.28783 28.9755 5.11593C28.9755 6.76241 29.9652 7.72873 33.7416 7.91034C36.7985 8.03198 37.2721 8.40377 37.2721 9.0891C37.2721 9.84466 36.5836 10.177 34.2722 10.177ZM62.7903 10.2764C60.5115 10.2764 59.3818 9.52083 59.2093 7.72357H63.0475C65.1294 7.72357 66.8516 7.72359 67.8412 7.73729C67.8705 7.31582 67.8998 6.87721 67.8998 6.27241C67.8998 3.82581 66.5211 2.35923 62.7903 2.35923C59.1719 2.35923 57.02 3.82581 57.02 7.13421C57.02 10.4426 59.1149 11.9983 62.761 11.9983C66.9818 11.9983 67.9422 10.6396 67.8852 8.66077C67.5465 8.69351 67.2064 8.70838 66.8662 8.70532C66.4121 8.70532 66.0621 8.68989 65.761 8.66077C65.7317 9.58081 65.1001 10.2764 62.7903 10.2764ZM75.9181 2.48086C73.0321 2.48086 72.6496 4.78013 72.4868 6.70588L72.3778 6.68189C72.3819 6.41925 72.3862 5.98356 72.391 5.48946C72.4015 4.42032 72.4147 3.07773 72.4347 2.62308H70.2291C70.2584 3.93033 70.2715 5.23585 70.2715 7.18559C70.2715 9.1045 70.2584 10.434 70.2291 11.6882H72.7261C72.6692 10.7818 72.6691 9.05826 72.6691 7.65506C72.6691 5.49287 73.8037 4.69275 75.6398 4.67733C76.3631 4.6554 77.0831 4.78888 77.7558 5.06967C77.7835 4.47515 77.9137 3.35636 78 2.84237C77.3304 2.59885 76.6265 2.47661 75.9181 2.48086ZM54.2834 9.00176L54.2833 9.00202L54.2831 9.0026C53.8687 10.1422 53.5095 11.1297 53.2941 11.6967C52.9491 11.6813 52.4904 11.6813 51.96 11.6813H51.9593H51.9585C51.3077 11.6813 50.7384 11.6813 50.4943 11.6967C50.1688 10.7304 49.49 8.62992 48.9154 6.74014C48.6859 6.01541 48.4857 5.35066 48.3278 4.80755H48.2692L48.2153 4.99297L48.2153 4.99312C48.0635 5.51646 47.8832 6.13827 47.6523 6.77099C47.0647 8.58366 46.3615 10.6396 45.9871 11.6967C45.8534 11.6967 45.6658 11.6907 45.4571 11.6839C45.1959 11.6754 44.9018 11.6659 44.6393 11.6659C44.0354 11.6659 43.6627 11.6813 43.4332 11.6967C43.2059 11.096 42.8767 10.1546 42.5027 9.08508C41.7192 6.84501 40.7393 4.04291 40.0882 2.63163H42.7121C42.883 3.31696 43.788 6.24843 44.3626 8.03026C44.6214 8.78583 44.7923 9.34608 44.9226 9.78297H44.9649C45.0499 9.5467 45.1403 9.26883 45.2441 8.94959C45.339 8.65769 45.4452 8.33119 45.5688 7.9703C46.1564 6.18675 46.9312 3.61336 47.1607 2.63163C47.5057 2.64705 48.2377 2.64705 48.6529 2.64705H48.6534H48.6538C49.0428 2.64705 49.5439 2.64705 49.8888 2.63163C50.1183 3.56881 50.8508 6.18675 51.4677 8.03026C51.7249 8.70859 51.9021 9.25297 52.0393 9.67456L52.0394 9.67476L52.0395 9.67519L52.0395 9.67535L52.0396 9.67544L52.0846 9.81382H52.1416C52.1673 9.72745 52.194 9.63584 52.2223 9.53862L52.2235 9.53461L52.224 9.53295L52.2248 9.53021L52.2248 9.53015C52.3399 9.13516 52.4818 8.64815 52.6869 8.04568C53.2469 6.24842 54.0949 3.50713 54.3147 2.63163H56.6668C56.0901 4.03388 55.0844 6.79918 54.2844 8.99902L54.284 9.0002L54.2836 9.00122L54.2834 9.00176ZM24.2209 11.6933C24.2502 10.5146 24.2648 8.86807 24.2648 6.89606C24.2648 5.14334 23.5047 4.40319 21.4651 4.40319C19.5704 4.40319 18.0647 5.25985 18.0647 7.25756C18.0647 9.82752 18.0778 10.8829 18.0924 11.7002H15.6671C15.7094 10.4752 15.7094 9.34266 15.7094 7.30382C15.7094 5.30954 15.6947 3.8892 15.6671 2.63507H18.1087C18.1035 2.88699 18.0983 3.30575 18.0925 3.77178L18.0925 3.77215L18.0925 3.77263L18.0925 3.77332L18.0925 3.77415L18.0925 3.77441C18.082 4.61996 18.0695 5.62022 18.0517 6.06168L18.138 6.07709C18.5156 4.42032 19.4727 2.43632 22.4434 2.43632C25.1422 2.43632 26.6495 3.59965 26.6495 6.33409C26.6495 6.98548 26.6405 7.45218 26.6325 7.8695V7.86958V7.86967V7.86977L26.6325 7.87008C26.626 8.20771 26.6202 8.51305 26.6202 8.85778C26.6202 9.85493 26.6348 10.7767 26.6641 11.6985L24.2209 11.6933ZM4.42969 8.15513C5.03399 6.81703 7.33065 1.43555 7.33065 1.43555L10.2642 8.15513C9.222 8.17226 8.09678 8.17226 7.2824 8.17226H7.28179H7.28122C6.5157 8.17226 5.44094 8.17226 4.42969 8.15513ZM59.2773 6.49894C61.2743 6.5452 64.1476 6.5452 65.7846 6.49894C65.7974 6.36346 65.8023 6.22728 65.7992 6.09117C65.7992 4.76165 64.9376 4.02148 62.7973 4.02148C60.5267 4.02148 59.4793 4.70682 59.2773 6.49894Z" fill="white"/>
</svg>
