<svg xmlns="http://www.w3.org/2000/svg" xmlns:xlink="http://www.w3.org/1999/xlink" width="500" zoomAndPan="magnify" viewBox="0 0 375 374.999991" height="500" preserveAspectRatio="xMidYMid meet" version="1.0"><defs><clipPath id="1efd797488"><path d="M 86.933594 199.398438 L 172.433594 199.398438 L 172.433594 284.898438 L 86.933594 284.898438 Z M 86.933594 199.398438 " clip-rule="nonzero"/></clipPath><clipPath id="790e64f16a"><path d="M 188.839844 236 L 287.839844 236 L 287.839844 245 L 188.839844 245 Z M 188.839844 236 " clip-rule="nonzero"/></clipPath><clipPath id="ff00c690d5"><path d="M 188.839844 207.300781 L 287.839844 207.300781 L 287.839844 216 L 188.839844 216 Z M 188.839844 207.300781 " clip-rule="nonzero"/></clipPath><clipPath id="356d15bbea"><path d="M 188.851562 265.003906 L 287.839844 265.003906 L 287.839844 273.785156 L 188.851562 273.785156 Z M 188.851562 265.003906 " clip-rule="nonzero"/></clipPath><clipPath id="09bf36020b"><path d="M 190 89.769531 L 287 89.769531 L 287 175.269531 L 190 175.269531 Z M 190 89.769531 " clip-rule="nonzero"/></clipPath><clipPath id="c68695cb80"><path d="M 87.683594 90.519531 L 172 90.519531 L 172 175 L 87.683594 175 Z M 87.683594 90.519531 " clip-rule="nonzero"/></clipPath><clipPath id="a7b1bf0007"><path d="M 86.933594 94.269531 L 86.933594 171.101562 C 86.933594 173.585938 88.949219 175.601562 91.433594 175.601562 L 168.265625 175.601562 C 170.75 175.601562 172.765625 173.585938 172.765625 171.101562 L 172.765625 94.269531 C 172.765625 91.785156 170.75 89.769531 168.265625 89.769531 L 91.433594 89.769531 C 88.949219 89.769531 86.933594 91.785156 86.933594 94.269531 Z M 86.933594 94.269531 " clip-rule="nonzero"/></clipPath><clipPath id="41586cffeb"><path d="M 92.332031 90.667969 L 167.367188 90.667969 C 169.851562 90.667969 171.867188 92.683594 171.867188 95.167969 L 171.867188 170.203125 C 171.867188 172.6875 169.851562 174.703125 167.367188 174.703125 L 92.332031 174.703125 C 89.847656 174.703125 87.832031 172.6875 87.832031 170.203125 L 87.832031 95.167969 C 87.832031 92.683594 89.847656 90.667969 92.332031 90.667969 Z M 92.332031 90.667969 " clip-rule="nonzero"/></clipPath><clipPath id="de1147728f"><path d="M 86.933594 89.769531 L 172.433594 89.769531 L 172.433594 175.269531 L 86.933594 175.269531 Z M 86.933594 89.769531 " clip-rule="nonzero"/></clipPath><clipPath id="e5c6f274d5"><path d="M 86.933594 94.269531 L 86.933594 171.101562 C 86.933594 173.585938 88.949219 175.601562 91.433594 175.601562 L 168.265625 175.601562 C 170.75 175.601562 172.765625 173.585938 172.765625 171.101562 L 172.765625 94.269531 C 172.765625 91.785156 170.75 89.769531 168.265625 89.769531 L 91.433594 89.769531 C 88.949219 89.769531 86.933594 91.785156 86.933594 94.269531 Z M 86.933594 94.269531 " clip-rule="nonzero"/></clipPath><clipPath id="57fb12b34b"><path d="M 86.933594 94.269531 L 86.933594 171.097656 C 86.933594 173.582031 88.949219 175.597656 91.433594 175.597656 L 168.261719 175.597656 C 170.746094 175.597656 172.761719 173.582031 172.761719 171.097656 L 172.761719 94.269531 C 172.761719 91.785156 170.746094 89.769531 168.261719 89.769531 L 91.433594 89.769531 C 88.949219 89.769531 86.933594 91.785156 86.933594 94.269531 Z M 86.933594 94.269531 " clip-rule="nonzero"/></clipPath></defs><rect x="-37.5" width="450" fill="#ffffff" y="-37.499999" height="449.999989" fill-opacity="1"/><rect x="-37.5" width="450" fill="#ffffff" y="-37.499999" height="449.999989" fill-opacity="1"/><g clip-path="url(#1efd797488)"><path fill="#f6be00" d="M 129.847656 199.398438 C 106.136719 199.398438 86.933594 218.601562 86.933594 242.3125 C 86.933594 266.023438 106.136719 285.226562 129.847656 285.226562 C 153.558594 285.226562 172.761719 266.023438 172.761719 242.3125 C 172.761719 218.601562 153.558594 199.398438 129.847656 199.398438 Z M 129.847656 276.644531 C 110.878906 276.644531 95.515625 261.28125 95.515625 242.3125 C 95.515625 223.34375 110.878906 207.980469 129.847656 207.980469 C 148.816406 207.980469 164.179688 223.34375 164.179688 242.3125 C 164.179688 261.28125 148.816406 276.644531 129.847656 276.644531 Z M 129.847656 276.644531 " fill-opacity="1" fill-rule="nonzero"/></g><g clip-path="url(#790e64f16a)"><path fill="#f6be00" d="M 283.714844 244.878906 L 193.1875 244.878906 C 190.792969 244.878906 188.851562 242.9375 188.851562 240.542969 C 188.851562 238.148438 190.792969 236.207031 193.1875 236.207031 L 283.714844 236.207031 C 286.109375 236.207031 288.050781 238.148438 288.050781 240.542969 C 288.050781 242.9375 286.109375 244.878906 283.714844 244.878906 " fill-opacity="1" fill-rule="nonzero"/></g><g clip-path="url(#ff00c690d5)"><path fill="#f6be00" d="M 283.714844 215.972656 L 193.1875 215.972656 C 190.792969 215.972656 188.851562 214.03125 188.851562 211.636719 C 188.851562 209.242188 190.792969 207.300781 193.1875 207.300781 L 283.714844 207.300781 C 286.109375 207.300781 288.050781 209.242188 288.050781 211.636719 C 288.050781 214.03125 286.109375 215.972656 283.714844 215.972656 " fill-opacity="1" fill-rule="nonzero"/></g><g clip-path="url(#356d15bbea)"><path fill="#f6be00" d="M 283.714844 273.785156 L 193.1875 273.785156 C 190.792969 273.785156 188.851562 271.84375 188.851562 269.449219 C 188.851562 267.054688 190.792969 265.113281 193.1875 265.113281 L 283.714844 265.113281 C 286.109375 265.113281 288.050781 267.054688 288.050781 269.449219 C 288.050781 271.84375 286.109375 273.785156 283.714844 273.785156 " fill-opacity="1" fill-rule="nonzero"/></g><g clip-path="url(#09bf36020b)"><path fill="#f6be00" d="M 277.671875 175.589844 L 199.226562 175.589844 C 195.984375 175.589844 193.113281 173.933594 191.488281 171.128906 C 189.867188 168.324219 189.867188 164.980469 191.488281 162.175781 L 230.710938 94.238281 C 232.332031 91.433594 235.207031 89.777344 238.449219 89.777344 C 241.691406 89.777344 244.5625 91.433594 246.183594 94.238281 L 285.40625 162.175781 C 287.027344 164.980469 287.027344 168.324219 285.40625 171.128906 C 283.785156 173.933594 280.914062 175.589844 277.671875 175.589844 Z M 201.894531 165.117188 L 275.035156 165.117188 L 238.449219 101.773438 Z M 201.894531 165.117188 " fill-opacity="1" fill-rule="nonzero"/></g><g clip-path="url(#c68695cb80)"><g clip-path="url(#a7b1bf0007)"><g clip-path="url(#41586cffeb)"><path fill="#f6be00" d="M 171.886719 89.769531 L 87.808594 89.769531 C 87.328125 89.769531 86.933594 90.160156 86.933594 90.644531 L 86.933594 174.722656 C 86.933594 175.207031 87.328125 175.597656 87.808594 175.597656 L 171.886719 175.597656 C 172.371094 175.597656 172.761719 175.207031 172.761719 174.722656 L 172.761719 90.644531 C 172.761719 90.160156 172.371094 89.769531 171.886719 89.769531 Z M 171.011719 173.847656 L 88.6875 173.847656 L 88.6875 91.519531 L 171.011719 91.519531 Z M 171.011719 173.847656 " fill-opacity="1" fill-rule="nonzero"/></g></g></g><g clip-path="url(#de1147728f)"><g clip-path="url(#e5c6f274d5)"><g clip-path="url(#57fb12b34b)"><path stroke-linecap="butt" transform="matrix(0.75, 0, 0, 0.75, 86.933963, 89.769537)" fill="none" stroke-linejoin="miter" d="M -0.000492055 5.999993 L -0.000492055 108.4375 C -0.000492055 111.75 2.687008 114.437501 5.999508 114.437501 L 108.437015 114.437501 C 111.749515 114.437501 114.437015 111.75 114.437015 108.4375 L 114.437015 5.999993 C 114.437015 2.687493 111.749515 -0.00000700685 108.437015 -0.00000700685 L 5.999508 -0.00000700685 C 2.687008 -0.00000700685 -0.000492055 2.687493 -0.000492055 5.999993 Z M -0.000492055 5.999993 " stroke="#f6be00" stroke-width="18" stroke-opacity="1" stroke-miterlimit="4"/></g></g></g></svg>